<svg width="24" height="24" viewBox="0 0 24 24" fill="none" xmlns="http://www.w3.org/2000/svg">
<path d="M21.5344 13.2844L12.5344 22.2844C12.3922 22.4253 12.2002 22.5043 12 22.5043C11.7999 22.5043 11.6078 22.4253 11.4656 22.2844L2.46565 13.2844C2.36391 13.176 2.29494 13.041 2.26674 12.895C2.23853 12.749 2.25224 12.598 2.30627 12.4594C2.36365 12.3229 2.46015 12.2065 2.58361 12.1247C2.70706 12.043 2.85196 11.9996 3.00002 12.0001H6.75002V4.50005C6.75002 4.10223 6.90806 3.7207 7.18936 3.43939C7.47067 3.15809 7.8522 3.00005 8.25002 3.00005H15.75C16.1479 3.00005 16.5294 3.15809 16.8107 3.43939C17.092 3.7207 17.25 4.10223 17.25 4.50005V12.0001H21C21.1481 11.9996 21.293 12.043 21.4164 12.1247C21.5399 12.2065 21.6364 12.3229 21.6938 12.4594C21.7478 12.598 21.7615 12.749 21.7333 12.895C21.7051 13.041 21.6361 13.176 21.5344 13.2844ZM16.5 13.5001C16.3011 13.5001 16.1103 13.421 15.9697 13.2804C15.829 13.1397 15.75 12.949 15.75 12.7501V4.50005H8.25002V12.7501C8.25002 12.949 8.17101 13.1397 8.03035 13.2804C7.8897 13.421 7.69894 13.5001 7.50002 13.5001H4.8094L12 20.6907L19.1907 13.5001H16.5Z" fill="#111111"/>
</svg>
