<svg width="24" height="24" viewBox="0 0 24 24" fill="none" xmlns="http://www.w3.org/2000/svg">
<path d="M21.5344 10.7156L12.5344 1.71557C12.3922 1.57474 12.2002 1.49573 12 1.49573C11.7999 1.49573 11.6078 1.57474 11.4656 1.71557L2.46565 10.7156C2.36391 10.824 2.29494 10.959 2.26674 11.105C2.23853 11.251 2.25224 11.402 2.30627 11.5406C2.36365 11.6771 2.46015 11.7935 2.58361 11.8753C2.70706 11.957 2.85196 12.0004 3.00002 11.9999H6.75002V19.4999C6.75002 19.8978 6.90806 20.2793 7.18936 20.5606C7.47067 20.8419 7.8522 20.9999 8.25002 20.9999H15.75C16.1479 20.9999 16.5294 20.8419 16.8107 20.5606C17.092 20.2793 17.25 19.8978 17.25 19.4999V11.9999H21C21.1481 12.0004 21.293 11.957 21.4164 11.8753C21.5399 11.7935 21.6364 11.6771 21.6938 11.5406C21.7478 11.402 21.7615 11.251 21.7333 11.105C21.7051 10.959 21.6361 10.824 21.5344 10.7156ZM16.5 10.4999C16.3011 10.4999 16.1103 10.579 15.9697 10.7196C15.829 10.8603 15.75 11.051 15.75 11.2499V19.4999H8.25002V11.2499C8.25002 11.051 8.17101 10.8603 8.03035 10.7196C7.8897 10.579 7.69894 10.4999 7.50002 10.4999H4.8094L12 3.30932L19.1907 10.4999H16.5Z" fill="#111111"/>
</svg>
